<svg width="48" height="48" viewBox="0 0 48 48" fill="none" xmlns="http://www.w3.org/2000/svg">
<path opacity="0.5" fill-rule="evenodd" clip-rule="evenodd" d="M24.6348 17.7598C24.6858 17.7088 24.7353 17.6875 24.8125 17.6875C24.8897 17.6875 24.9391 17.7089 24.9901 17.7599L25.712 18.4504C25.7475 18.4868 25.7585 18.5152 25.7525 18.5752L25.75 18.6001V18.625C25.75 18.7007 25.7295 18.7497 25.6807 18.7997L21.0369 23.25L31.25 23.25C31.3272 23.25 31.3767 23.2713 31.4277 23.3223C31.4787 23.3733 31.5 23.4228 31.5 23.5V24.5C31.5 24.5772 31.4787 24.6267 31.4277 24.6777C31.3767 24.7287 31.3272 24.75 31.25 24.75H21.0369L25.6807 29.2003C25.7295 29.2503 25.75 29.2993 25.75 29.375V29.3999L25.7525 29.4248C25.7585 29.4848 25.7475 29.5132 25.712 29.5496L24.9981 30.2323L24.9902 30.2402C24.9392 30.2912 24.8897 30.3125 24.8125 30.3125C24.7353 30.3125 24.6858 30.2912 24.6348 30.2402L18.5723 24.1777C18.5213 24.1267 18.5 24.0772 18.5 24C18.5 23.9228 18.5213 23.8733 18.5723 23.8223L24.6348 17.7598Z" fill="#444445"/>
</svg>
