<svg width="10" height="6" viewBox="0 0 10 6" fill="none" xmlns="http://www.w3.org/2000/svg">
<path fill-rule="evenodd" clip-rule="evenodd" d="M1.29105 0.353553C1.34205 0.302553 1.39151 0.28125 1.46875 0.28125C1.54599 0.28125 1.59545 0.302553 1.64645 0.353553L5 3.70711L8.35355 0.353553C8.40455 0.302553 8.45401 0.28125 8.53125 0.28125C8.60849 0.28125 8.65786 0.30264 8.70886 0.353641L9.4308 1.04419C9.47956 1.0941 9.5 1.1431 9.5 1.21875C9.5 1.29599 9.4787 1.34545 9.4277 1.39645L5.1777 5.64645C5.1267 5.69745 5.07724 5.71875 5 5.71875C4.92276 5.71875 4.8733 5.69745 4.8223 5.64645L0.572303 1.39645C0.521303 1.34545 0.5 1.29599 0.5 1.21875C0.5 1.1431 0.520437 1.0941 0.569199 1.04419L1.2832 0.36141L1.29105 0.353553Z" fill="#97C93C"/>
</svg>
