<?xml version="1.0" encoding="utf-8"?>
<!-- Generator: Adobe Illustrator 20.0.0, SVG Export Plug-In . SVG Version: 6.00 Build 0)  -->
<svg version="1.1" id="Layer_1" xmlns="http://www.w3.org/2000/svg" xmlns:xlink="http://www.w3.org/1999/xlink" x="0px" y="0px"
	 viewBox="0 0 48 48" style="enable-background:new 0 0 48 48;" xml:space="preserve">
<style type="text/css">
	.st0{fill:#FFFFFF;enable-background:new    ;}
</style>
<path class="st0" d="M23.6,17.8c0.1-0.1,0.1-0.1,0.2-0.1s0.1,0,0.2,0.1l0.7,0.7c0,0,0,0.1,0,0.1l0,0v0c0,0.1,0,0.1-0.1,0.2L20,23.3
	h10.2c0.1,0,0.1,0,0.2,0.1s0.1,0.1,0.1,0.2v1c0,0.1,0,0.1-0.1,0.2s-0.1,0.1-0.2,0.1H20l4.6,4.5c0,0,0.1,0.1,0.1,0.2v0l0,0
	c0,0.1,0,0.1,0,0.1L24,30.2l0,0c-0.1,0.1-0.1,0.1-0.2,0.1s-0.1,0-0.2-0.1l-6.1-6.1c-0.1-0.1-0.1-0.1-0.1-0.2s0-0.1,0.1-0.2
	L23.6,17.8z"/>
</svg>
