<svg width="41" height="37" viewBox="0 0 41 37" fill="none" xmlns="http://www.w3.org/2000/svg">
<path d="M20.5 0.5C18.9062 0.5 17.4297 0.898438 16.0703 1.69531C14.7109 2.49219 13.6328 3.57031 12.8359 4.92969C12.0391 6.28906 11.6406 7.76562 11.6406 9.35938C11.6406 11.0938 12.6953 13.5547 14.8047 16.7422C16.1641 18.7578 17.7812 20.8906 19.6562 23.1406C19.8906 23.4219 20.1719 23.5625 20.5 23.5625C20.8281 23.5625 21.1094 23.4219 21.3438 23.1406C23.2188 20.8906 24.8359 18.7578 26.1953 16.7422C28.3047 13.5547 29.3594 11.0938 29.3594 9.35938C29.3594 7.76562 28.9609 6.28906 28.1641 4.92969C27.3672 3.57031 26.2891 2.49219 24.9297 1.69531C23.5703 0.898438 22.0938 0.5 20.5 0.5ZM20.5 12.3125C19.7031 12.3125 19 12.0312 18.3906 11.4688C17.8281 10.8594 17.5469 10.1562 17.5469 9.35938C17.5469 8.5625 17.8281 7.88281 18.3906 7.32031C19 6.71094 19.7031 6.40625 20.5 6.40625C21.2969 6.40625 21.9766 6.71094 22.5391 7.32031C23.1484 7.88281 23.4531 8.5625 23.4531 9.35938C23.4531 10.1562 23.1484 10.8594 22.5391 11.4688C21.9766 12.0312 21.2969 12.3125 20.5 12.3125ZM1.65625 15.6875C1.23438 15.875 0.882812 16.1562 0.601562 16.5312C0.367188 16.9062 0.25 17.3281 0.25 17.7969V35.375C0.25 35.75 0.414062 36.0547 0.742188 36.2891C1.07031 36.5234 1.42188 36.5703 1.79688 36.4297L11.5 32V15.6172C10.8438 14.4453 10.3516 13.3438 10.0234 12.3125L1.65625 15.6875ZM20.5 25.8125C19.4688 25.8125 18.6016 25.4141 17.8984 24.6172C16.3516 22.7422 14.9688 20.9375 13.75 19.2031V32L27.25 36.5V19.2031C26.0312 20.9375 24.6484 22.7422 23.1016 24.6172C22.3984 25.4141 21.5312 25.8125 20.5 25.8125ZM39.2031 11.8203L29.5 16.25V36.5L39.3438 32.5625C39.7656 32.375 40.0938 32.0938 40.3281 31.7188C40.6094 31.3438 40.75 30.9219 40.75 30.4531V12.875C40.75 12.5 40.5859 12.1953 40.2578 11.9609C39.9297 11.7266 39.5781 11.6797 39.2031 11.8203Z" fill="#444445"/>
</svg>
