<svg width="41" height="27" viewBox="0 0 41 27" fill="none" xmlns="http://www.w3.org/2000/svg">
<path d="M23.875 0H3.625C2.6875 0 1.89062 0.328125 1.23438 0.984375C0.578125 1.64062 0.25 2.4375 0.25 3.375V23.625C0.25 24.5625 0.578125 25.3594 1.23438 26.0156C1.89062 26.6719 2.6875 27 3.625 27H23.875C24.8125 27 25.6094 26.6719 26.2656 26.0156C26.9219 25.3594 27.25 24.5625 27.25 23.625V3.375C27.25 2.4375 26.9219 1.64062 26.2656 0.984375C25.6094 0.328125 24.8125 0 23.875 0ZM37.2344 2.67188L29.5 7.94531V19.0547L37.2344 24.3281C37.7031 24.6562 38.2188 24.7969 38.7812 24.75C39.3438 24.6562 39.8125 24.4219 40.1875 24.0469C40.5625 23.625 40.75 23.1094 40.75 22.5V4.42969C40.75 3.86719 40.5625 3.39844 40.1875 3.02344C39.8125 2.60156 39.3438 2.36719 38.7812 2.32031C38.2188 2.22656 37.7031 2.34375 37.2344 2.67188Z" fill="#444445"/>
</svg>
